
<svg xmlns="http://www.w3.org/2000/svg" width="1000" height="873.66101" viewBox="0 0 1000 873.66101" id="svg2" version="1.1">
  <defs id="defs10"></defs>
  
  
  <path d="m 718.50755,62.061461 c 86.07315,0 155.89217,363.132629 155.89217,811.599559 l 125.60028,0 C 1000,390.83872 873.29145,1.4148437e-4 718.13814,1.4148437e-4 629.47914,1.4148437e-4 551.16365,117.10396 499.44586,301.07145 447.7281,117.10396 369.41263,1.4148437e-4 281.49239,1.4148437e-4 126.33911,1.4148437e-4 0,390.46931 0,873.29162 l 125.60032,0 c 0,-448.46693 69.08011,-811.230159 155.15328,-811.230159 86.07316,0 155.89213,335.426649 155.89213,749.168809 l 124.86147,0 c 0,-413.74216 70.18843,-749.168809 156.26156,-749.168809" id="path6" style="fill:#ffc300"></path>
</svg>
